<?xml version="1.0" standalone="yes"?>
<svg xmlns="http://www.w3.org/2000/svg" width="571" height="541">
<path style="fill:#fdfdfd; stroke:none;" d="M0 0L0 541L571 541L571 0L0 0z"/>
<path style="fill:#beb9b2; stroke:none;" d="M57 67L57 204L58 204L58 108C58 96.318 61.5075 77.7419 57 67z"/>
<path style="fill:#959d8e; stroke:none;" d="M58 67L58 68L70 68L58 67z"/>
<path style="fill:#522b28; stroke:none;" d="M68 68L68 69C92.059 69 120.569 73.0385 144 68L145 69L144 86L177 83.0895L219 94L219 93C195.594 79.9149 171.377 81.9804 146 84L146 67C121.482 67 91.8977 62.492 68 68z"/>
<path style="fill:#959d8e; stroke:none;" d="M74 67L75 68L74 67M146 67L146 84L147 84L146 67z"/>
<path style="fill:#522b28; stroke:none;" d="M58 68L58 163C58 177.173 54.9831 195.411 59 209L60 209L59 69L67 69L58 68z"/>
<path style="fill:#8a0a33; stroke:none;" d="M59 69L59 396L59 480C59 486.786 55.763 505.012 60.0278 510.397C63.0826 514.254 76.4741 512 81 512L145 512L145 380L145 292C145 262.865 139.442 223.972 155.811 198C166.987 180.268 191.819 170.362 210.985 182.468C222.073 189.472 229.001 201.778 232.576 214C241.075 243.064 237.744 274.215 237.015 304C236.108 341.011 238 378.051 238 415C238 433.497 237.001 452.99 238.504 471.285C238.947 476.681 236.636 483.766 239.309 488.786C242.263 494.332 250.829 493 256 493C272.591 493 292.856 496.512 309 493.67C319.062 491.899 318 483.054 318 475C318 456.975 317 439.061 317 421C317 380.02 317.703 339.016 317.997 297.996C318.169 273.894 315.602 248.673 320.45 225C326.31 196.384 347.609 168.645 380 179.359C403.105 187.001 410.908 216.324 412.925 238C418.325 296.03 414 355.731 414 414C414 433.04 413 451.942 413 471C413 480.055 411.465 489.864 423 490L423 491L417 492L417 493C424.451 495.203 432.393 493.504 440 493.079C450.604 492.486 461.293 493.224 471.91 492.92C477.427 492.762 485.337 494.665 489.297 489.772C494.283 483.611 492 471.396 492 464L492 399C492 340.239 494.1 280.557 490.09 222C487.573 185.259 483.189 145.44 458.715 116C421.397 71.1123 348.345 74.7151 311.3 118C288.429 144.724 281.513 179.822 280 214C275.603 209.248 278.56 202.039 277.7 196C275.656 181.657 273.409 166.738 268.656 153C254.758 112.833 221.053 87.2394 179 83.1698C166.97 82.0056 155.798 84.4764 144 86L145 69L144 68L59 69z"/>
<path style="fill:#beb9b2; stroke:none;" d="M158.667 81.3333L159.333 81.6667L158.667 81.3333z"/>
<path style="fill:#959d8e; stroke:none;" d="M160 81L160 82L167 82L160 81M172 81L172 82L179 82L172 81z"/>
<path style="fill:#beb9b2; stroke:none;" d="M179 81L179 82L184 82L179 81M152.667 82.3333L153.333 82.6667L152.667 82.3333z"/>
<path style="fill:#959d8e; stroke:none;" d="M154.667 82.3333L155.333 82.6667L154.667 82.3333M185 82L185 83L188 83L185 82z"/>
<path style="fill:#beb9b2; stroke:none;" d="M188 82L188 83L191 83L188 82M375 82L375 83L380 83L375 82z"/>
<path style="fill:#959d8e; stroke:none;" d="M380 82L380 83L397 83L380 82z"/>
<path style="fill:#beb9b2; stroke:none;" d="M397 82L397 83L401 83L397 82M148 83L149 84L148 83z"/>
<path style="fill:#959d8e; stroke:none;" d="M149.667 83.3333L150.333 83.6667L149.667 83.3333M191 83L192 84L191 83z"/>
<path style="fill:#beb9b2; stroke:none;" d="M192.667 83.3333L193.333 83.6667L192.667 83.3333M367 83L367 84L370 84L367 83z"/>
<path style="fill:#959d8e; stroke:none;" d="M370.667 83.3333L371.333 83.6667L370.667 83.3333z"/>
<path style="fill:#522b28; stroke:none;" d="M299 136L300 136C330.82 85.6519 402.546 62.9183 449.961 107.174C476.846 132.268 488.976 175.038 489 211C494.218 198.564 485.785 176.484 482.748 164C477.281 141.522 466.12 116.635 446.985 102.156C401.056 67.4005 322.51 79.8285 299 136z"/>
<path style="fill:#959d8e; stroke:none;" d="M402 83L402 84L405 84L402 83z"/>
<path style="fill:#beb9b2; stroke:none;" d="M405.667 83.3333L406.333 83.6667L405.667 83.3333z"/>
<path style="fill:#959d8e; stroke:none;" d="M195.667 84.3333L196.333 84.6667L195.667 84.3333z"/>
<path style="fill:#beb9b2; stroke:none;" d="M197 84L198 85L197 84M363 84L364 85L363 84z"/>
<path style="fill:#959d8e; stroke:none;" d="M364.667 84.3333L365.333 84.6667L364.667 84.3333M408.667 84.3333L409.333 84.6667L408.667 84.3333z"/>
<path style="fill:#beb9b2; stroke:none;" d="M410 84L411 85L410 84z"/>
<path style="fill:#959d8e; stroke:none;" d="M199.667 85.3333L200.333 85.6667L199.667 85.3333z"/>
<path style="fill:#beb9b2; stroke:none;" d="M201 85L202 86L201 85M359 85L360 86L359 85z"/>
<path style="fill:#959d8e; stroke:none;" d="M360.667 85.3333L361.333 85.6667L360.667 85.3333M412.667 85.3333L413.333 85.6667L412.667 85.3333z"/>
<path style="fill:#beb9b2; stroke:none;" d="M414.667 85.3333L415.333 85.6667L414.667 85.3333z"/>
<path style="fill:#959d8e; stroke:none;" d="M202.667 86.3333L203.333 86.6667L202.667 86.3333z"/>
<path style="fill:#beb9b2; stroke:none;" d="M204 86L205 87L204 86M355.667 86.3333L356.333 86.6667L355.667 86.3333z"/>
<path style="fill:#959d8e; stroke:none;" d="M357 86L358 87L357 86M416.667 86.3333L417.333 86.6667L416.667 86.3333z"/>
<path style="fill:#beb9b2; stroke:none;" d="M418 86L419 87L418 86z"/>
<path style="fill:#959d8e; stroke:none;" d="M206.667 87.3333L207.333 87.6667L206.667 87.3333z"/>
<path style="fill:#beb9b2; stroke:none;" d="M208 87L209 88L208 87M352 87L353 88L352 87z"/>
<path style="fill:#959d8e; stroke:none;" d="M353.667 87.3333L354.333 87.6667L353.667 87.3333M419 87L420 88L419 87z"/>
<path style="fill:#beb9b2; stroke:none;" d="M420 87L421 88L420 87z"/>
<path style="fill:#959d8e; stroke:none;" d="M209 88L210 89L209 88z"/>
<path style="fill:#beb9b2; stroke:none;" d="M210 88L211 89L210 88M350 88L351 89L350 88z"/>
<path style="fill:#959d8e; stroke:none;" d="M351 88L352 89L351 88M422 88L423 89L422 88z"/>
<path style="fill:#beb9b2; stroke:none;" d="M423 88L424 89L423 88M211 89L211 90L214 90L211 89M347 89L348 90L347 89z"/>
<path style="fill:#959d8e; stroke:none;" d="M348 89L349 90L348 89M424 89L425 90L424 89z"/>
<path style="fill:#beb9b2; stroke:none;" d="M425 89L426 90L425 89z"/>
<path style="fill:#959d8e; stroke:none;" d="M215 90L216 91L215 90z"/>
<path style="fill:#beb9b2; stroke:none;" d="M345 90L346 91L345 90z"/>
<path style="fill:#959d8e; stroke:none;" d="M346 90L347 91L346 90z"/>
<path style="fill:#beb9b2; stroke:none;" d="M427 90L428 91L427 90z"/>
<path style="fill:#959d8e; stroke:none;" d="M216 91L217 92L216 91z"/>
<path style="fill:#beb9b2; stroke:none;" d="M217 91L220 93L220 92L217 91M343 91L344 92L343 91z"/>
<path style="fill:#959d8e; stroke:none;" d="M429 91L430 92L429 91z"/>
<path style="fill:#beb9b2; stroke:none;" d="M430 91L431 92L430 91M341 92L342 93L341 92z"/>
<path style="fill:#959d8e; stroke:none;" d="M431 92L432 93L431 92z"/>
<path style="fill:#beb9b2; stroke:none;" d="M432 92L433 93L432 92z"/>
<path style="fill:#959d8e; stroke:none;" d="M219.667 93.3333L220.333 93.6667L219.667 93.3333z"/>
<path style="fill:#beb9b2; stroke:none;" d="M221 93L222 94L221 93z"/>
<path style="fill:#959d8e; stroke:none;" d="M339 93L340 94L339 93M433 93L434 94L433 93z"/>
<path style="fill:#beb9b2; stroke:none;" d="M434 93L435 94L434 93z"/>
<path style="fill:#522b28; stroke:none;" d="M220 94L220 95C252.299 109.118 272.34 149.338 275 183L276 183C275.734 150.812 253.09 103.737 220 94z"/>
<path style="fill:#959d8e; stroke:none;" d="M222 94L223 95L222 94z"/>
<path style="fill:#beb9b2; stroke:none;" d="M223 94L223 95L229 98L223 94M337 94L338 95L337 94z"/>
<path style="fill:#959d8e; stroke:none;" d="M338 94L339 95L338 94M435 94L436 95L435 94M224 95L225 96L224 95z"/>
<path style="fill:#beb9b2; stroke:none;" d="M335 95L336 96L335 95z"/>
<path style="fill:#959d8e; stroke:none;" d="M336 95L337 96L336 95z"/>
<path style="fill:#beb9b2; stroke:none;" d="M437 95L438 96L437 95M333 96L334 97L333 96z"/>
<path style="fill:#959d8e; stroke:none;" d="M334 96L335 97L334 96M438 96L439 97L438 96z"/>
<path style="fill:#beb9b2; stroke:none;" d="M439 96L440 97L439 96z"/>
<path style="fill:#959d8e; stroke:none;" d="M227 97L228 98L227 97M332 97L333 98L332 97M440 97L441 98L440 97M229 98L231 100L229 98z"/>
<path style="fill:#beb9b2; stroke:none;" d="M230.667 98.3333L231.333 98.6667L230.667 98.3333M330 98L331 99L330 98z"/>
<path style="fill:#959d8e; stroke:none;" d="M331 98L332 99L331 98M441 98L442 99L441 98z"/>
<path style="fill:#beb9b2; stroke:none;" d="M442 98L443 99L442 98z"/>
<path style="fill:#959d8e; stroke:none;" d="M329 99L330 100L329 99M443 99L444 100L443 99z"/>
<path style="fill:#beb9b2; stroke:none;" d="M232 100L233 101L232 100M327 100L328 101L327 100z"/>
<path style="fill:#959d8e; stroke:none;" d="M328 100L329 101L328 100M444 100L445 101L444 100z"/>
<path style="fill:#beb9b2; stroke:none;" d="M445 100L446 101L445 100M233 101L234 102L233 101M326 101L327 102L326 101z"/>
<path style="fill:#959d8e; stroke:none;" d="M446 101L447 102L446 101M234 102L235 103L234 102z"/>
<path style="fill:#beb9b2; stroke:none;" d="M235 102L236 103L235 102z"/>
<path style="fill:#959d8e; stroke:none;" d="M325 102L326 103L325 102M447 102L448 103L447 102z"/>
<path style="fill:#beb9b2; stroke:none;" d="M236 103L237 104L236 103M323 103L322 105L323 103z"/>
<path style="fill:#959d8e; stroke:none;" d="M324 103L325 104L324 103M448 103L449 104L448 103z"/>
<path style="fill:#beb9b2; stroke:none;" d="M449 103L450 104L449 103z"/>
<path style="fill:#959d8e; stroke:none;" d="M237 104L238 105L237 104M323 104L324 105L323 104z"/>
<path style="fill:#beb9b2; stroke:none;" d="M450 104L451 105L450 104z"/>
<path style="fill:#959d8e; stroke:none;" d="M238 105L239 106L238 105z"/>
<path style="fill:#beb9b2; stroke:none;" d="M321 105L322 106L321 105M451 105L452 106L451 105z"/>
<path style="fill:#959d8e; stroke:none;" d="M239 106L240 107L239 106z"/>
<path style="fill:#beb9b2; stroke:none;" d="M240 106L241 107L240 106z"/>
<path style="fill:#959d8e; stroke:none;" d="M320 106L321 107L320 106z"/>
<path style="fill:#beb9b2; stroke:none;" d="M452 106L455 109L452 106M241 107L242 108L241 107z"/>
<path style="fill:#959d8e; stroke:none;" d="M319 107L320 108L319 107M452 107L453 108L452 107z"/>
<path style="fill:#beb9b2; stroke:none;" d="M242 108L243 109L242 108z"/>
<path style="fill:#959d8e; stroke:none;" d="M318 108L319 109L318 108M453 108L454 109L453 108M243 109L244 110L243 109M317 109L318 110L317 109M454 109L455 110L454 109M244 110L245 111L244 110M316 110L317 111L316 110M455 110L456 111L455 110z"/>
<path style="fill:#beb9b2; stroke:none;" d="M245 111L246 112L245 111z"/>
<path style="fill:#959d8e; stroke:none;" d="M315 111L316 112L315 111M456 111L458 113L456 111z"/>
<path style="fill:#beb9b2; stroke:none;" d="M457 111L458 112L457 111M246 112L249 115L246 112z"/>
<path style="fill:#959d8e; stroke:none;" d="M314 112L315 113L314 112M246 113L247 114L246 113M313 113L314 114L313 113M458 113L459 114L458 113M247 114L248 115L247 114M312 114L313 115L312 114M459 114L460 115L459 114M248 115L249 116L248 115M311 115L312 116L311 115M460 115C463.655 123.688 470.823 137.893 478 144C473.809 134.273 467.864 122.206 460 115M249 116L250 117L249 116M310 116L311 117L310 116M250 117L251 118L250 117M309 117L310 118L309 117z"/>
<path style="fill:#beb9b2; stroke:none;" d="M462 117L463 118L462 117M251 118L252 119L251 118M308 118L307 120L308 118M463 118L464 119L463 118M252 119L253 120L252 119z"/>
<path style="fill:#959d8e; stroke:none;" d="M308 119L309 120L308 119z"/>
<path style="fill:#beb9b2; stroke:none;" d="M253 120L254 121L253 120z"/>
<path style="fill:#959d8e; stroke:none;" d="M307 120L308 121L307 120z"/>
<path style="fill:#beb9b2; stroke:none;" d="M464 120L465 121L464 120z"/>
<path style="fill:#959d8e; stroke:none;" d="M253 121L254 122L253 121z"/>
<path style="fill:#beb9b2; stroke:none;" d="M306 121L305 123L306 121M465 121L466 122L465 121z"/>
<path style="fill:#959d8e; stroke:none;" d="M254 122L255 123L254 122M306 122L307 123L306 122M255 123L256 124L255 123M305 123L306 124L305 123z"/>
<path style="fill:#beb9b2; stroke:none;" d="M466 123L467 124L466 123M256 124L258 126L256 124z"/>
<path style="fill:#959d8e; stroke:none;" d="M304 124L293 144L294 144L304 124z"/>
<path style="fill:#beb9b2; stroke:none;" d="M467 124L468 125L467 124z"/>
<path style="fill:#959d8e; stroke:none;" d="M256 125L257 126L256 125z"/>
<path style="fill:#beb9b2; stroke:none;" d="M303 125L304 126L303 125z"/>
<path style="fill:#959d8e; stroke:none;" d="M257 126L259 129L257 126z"/>
<path style="fill:#beb9b2; stroke:none;" d="M468 126L469 127L468 126M258 127L259 128L258 127M302 127L303 128L302 127M469 127L470 128L469 127M301 128L302 129L301 128M259 129L261 131L259 129M470 129L471 130L470 129z"/>
<path style="fill:#959d8e; stroke:none;" d="M259 130L260 131L259 130z"/>
<path style="fill:#beb9b2; stroke:none;" d="M300 130L301 131L300 130z"/>
<path style="fill:#959d8e; stroke:none;" d="M260 131L261 132L260 131z"/>
<path style="fill:#beb9b2; stroke:none;" d="M471 131L472 132L471 131M261 132L263 134L261 132M299 132L300 133L299 132z"/>
<path style="fill:#959d8e; stroke:none;" d="M261 133L262 134L261 133z"/>
<path style="fill:#beb9b2; stroke:none;" d="M472 133L473 134L472 133z"/>
<path style="fill:#959d8e; stroke:none;" d="M262 134L263 138L264 138L262 134z"/>
<path style="fill:#beb9b2; stroke:none;" d="M298 134L299 135L298 134M263 135L264 136L263 135M297 135L298 136L297 135M473 135L474 136L473 135M296 136L297 137L296 136z"/>
<path style="fill:#522b28; stroke:none;" d="M298 137L299 138L298 137z"/>
<path style="fill:#beb9b2; stroke:none;" d="M474 137L475 138L474 137z"/>
<path style="fill:#959d8e; stroke:none;" d="M264 138L265 142L266 142L264 138z"/>
<path style="fill:#beb9b2; stroke:none;" d="M295 138L296 139L295 138z"/>
<path style="fill:#522b28; stroke:none;" d="M297 138L298 139L297 138z"/>
<path style="fill:#beb9b2; stroke:none;" d="M475 138L476 139L475 138M265 139L266 140L265 139z"/>
<path style="fill:#522b28; stroke:none;" d="M296 139L295 142L296 139z"/>
<path style="fill:#beb9b2; stroke:none;" d="M476 140L477 141L476 140M266.333 141.667L266.667 142.333L266.333 141.667M293 141L294 142L293 141z"/>
<path style="fill:#522b28; stroke:none;" d="M294.333 142.667L294.667 143.333L294.333 142.667z"/>
<path style="fill:#beb9b2; stroke:none;" d="M477 142L478 143L477 142z"/>
<path style="fill:#959d8e; stroke:none;" d="M266 143L267 144L266 143z"/>
<path style="fill:#beb9b2; stroke:none;" d="M267 144L268 145L267 144M292 144L293 145L292 144z"/>
<path style="fill:#522b28; stroke:none;" d="M293 144L292 149L293 149L293 144z"/>
<path style="fill:#beb9b2; stroke:none;" d="M478 144L479 145L478 144z"/>
<path style="fill:#959d8e; stroke:none;" d="M267.333 145.667L267.667 146.333L267.333 145.667M292 145L293 146L292 145M478 145C480.014 164.684 487.911 183.913 489.83 204C495.441 262.717 492 322.999 492 382L493 382L492.039 214L484.63 164L478 145z"/>
<path style="fill:#beb9b2; stroke:none;" d="M268 146L268 149L269 149L268 146M291.333 146.667L291.667 147.333L291.333 146.667M479 146L480 147L479 146z"/>
<path style="fill:#959d8e; stroke:none;" d="M291.333 148.667L291.667 149.333L291.333 148.667z"/>
<path style="fill:#beb9b2; stroke:none;" d="M480 148L481 149L480 148z"/>
<path style="fill:#959d8e; stroke:none;" d="M268 149L269 150L268 149z"/>
<path style="fill:#beb9b2; stroke:none;" d="M269 150L271 155L272 155L269 150M290 150L291 151L290 150z"/>
<path style="fill:#522b28; stroke:none;" d="M291.333 150.667L291.667 151.333L291.333 150.667z"/>
<path style="fill:#beb9b2; stroke:none;" d="M481.333 150.667L481.667 151.333L481.333 150.667z"/>
<path style="fill:#959d8e; stroke:none;" d="M269 151L270 152L269 151M290.333 151.667L290.667 152.333L290.333 151.667M270.333 152.667L270.667 153.333L270.333 152.667z"/>
<path style="fill:#beb9b2; stroke:none;" d="M289 153L290 154L289 153z"/>
<path style="fill:#522b28; stroke:none;" d="M290 153C284.647 166.051 279.295 180.728 279 195L278 195L277 184L276 184C276.05 190.067 275.603 210.891 280 214L285.425 171L290 153z"/>
<path style="fill:#959d8e; stroke:none;" d="M289 154L290 155L289 154z"/>
<path style="fill:#beb9b2; stroke:none;" d="M482.333 154.667L482.667 155.333L482.333 154.667z"/>
<path style="fill:#959d8e; stroke:none;" d="M271 155L272 156L271 155z"/>
<path style="fill:#beb9b2; stroke:none;" d="M288 155L289 156L288 155M272.333 156.667L272.667 157.333L272.333 156.667z"/>
<path style="fill:#959d8e; stroke:none;" d="M288 156L289 157L288 156M272 158L272 161L273 161L272 158M287 158L288 159L287 158z"/>
<path style="fill:#beb9b2; stroke:none;" d="M483.333 158.667L483.667 159.333L483.333 158.667M286 160L287 161L286 160M273.333 161.667L273.667 162.333L273.333 161.667z"/>
<path style="fill:#959d8e; stroke:none;" d="M286 161L287 162L286 161z"/>
<path style="fill:#beb9b2; stroke:none;" d="M484.333 162.667L484.667 163.333L484.333 162.667z"/>
<path style="fill:#959d8e; stroke:none;" d="M273 163L274 164L273 163z"/>
<path style="fill:#beb9b2; stroke:none;" d="M285 163L286 164L285 163M274 164L274 167L275 167L274 164z"/>
<path style="fill:#959d8e; stroke:none;" d="M285 164L286 165L285 164z"/>
<path style="fill:#beb9b2; stroke:none;" d="M485 165L485 168L486 168L485 165M284 166L285 167L284 166z"/>
<path style="fill:#959d8e; stroke:none;" d="M274.333 167.667L274.667 168.333L274.333 167.667M284 167L285 168L284 167z"/>
<path style="fill:#beb9b2; stroke:none;" d="M283 168L284 169L283 168z"/>
<path style="fill:#959d8e; stroke:none;" d="M283.333 169.667L283.667 170.333L283.333 169.667z"/>
<path style="fill:#beb9b2; stroke:none;" d="M486.333 169.667L486.667 170.333L486.333 169.667M275 171L275 174L276 174L275 171M282.333 172.667L282.667 173.333L282.333 172.667M487 173L487 176L488 176L487 173z"/>
<path style="fill:#959d8e; stroke:none;" d="M275.333 174.667L275.667 175.333L275.333 174.667M282.333 174.667L282.667 175.333L282.333 174.667z"/>
<path style="fill:#522b28; stroke:none;" d="M145 512L83 512C77.7309 512 64.5709 514.364 60.6034 510.397C56.9772 506.77 59 495.762 59 491L59 436C59 363.253 60 290.705 60 218L59 218L58 513L122 513C127.473 513 140.971 515.459 145.386 511.976C148.504 509.516 146.691 501.328 146.344 498C145.042 485.524 146 472.539 146 460L146 302L146 278C146 243.739 143.099 180.415 192 179.456C237.509 178.563 236 242.172 236 273C236 327.575 234.144 382.565 235.965 437C236.344 448.356 236.83 460.693 235.833 471.999C235.344 477.546 234.324 486.236 238.434 490.721C242.166 494.795 248.054 493.807 252.996 494.079C266.543 494.824 280.38 494 294 494C283.973 489.792 266.896 493 256 493C250.871 493 244.423 493.826 240.522 489.695C236.425 485.356 239.188 476.652 238.761 471.271C237.362 453.634 238 434.82 238 417L238 266C238 243.548 238.964 213.821 224.471 195C208.492 174.251 178.398 170.704 160.299 191.039C151.33 201.117 147.957 215.907 146.285 229C142.119 261.647 145 296.1 145 329L145 512z"/>
<path style="fill:#beb9b2; stroke:none;" d="M281 177L282 178L281 177z"/>
<path style="fill:#522b28; stroke:none;" d="M313 492L313 493C320.762 489.171 319 480.424 319 473L319 418L319 302C319 279.876 317.253 256.931 320.428 235C322.101 223.45 324.677 211.322 330.312 201C332.944 196.181 340.25 190.903 341 186C353.434 183.156 362.412 177.035 376 179.326C409.252 184.932 409 231.634 409 257L410 257L410 246L411 246L411 251C416.281 257.971 413 275.37 413 284C415.802 277.322 414 267.216 414 260C414 236.917 412.139 207.106 395.816 189.015C378.689 170.034 343.792 174.113 330.876 196.001C315.689 221.737 318 251.325 318 280C318 324.68 317 369.366 317 414C317 433.035 318 452.031 318 471C318 478.657 319.599 486.769 313 492z"/>
<path style="fill:#959d8e; stroke:none;" d="M281.333 178.667L281.667 179.333L281.333 178.667M190 179L190 180L195 180L190 179z"/>
<path style="fill:#beb9b2; stroke:none;" d="M276 179L276 182L277 182L276 179z"/>
<path style="fill:#959d8e; stroke:none;" d="M358 179L358 180L362 180L358 179z"/>
<path style="fill:#beb9b2; stroke:none;" d="M362 179L362 180L367 180L362 179M370 179L370 180L385 184L370 179z"/>
<path style="fill:#959d8e; stroke:none;" d="M376.667 179.333L377.333 179.667L376.667 179.333z"/>
<path style="fill:#beb9b2; stroke:none;" d="M488.333 179.667L488.667 180.333L488.333 179.667z"/>
<path style="fill:#959d8e; stroke:none;" d="M183.667 180.333L184.333 180.667L183.667 180.333z"/>
<path style="fill:#beb9b2; stroke:none;" d="M185.667 180.333L186.333 180.667L185.667 180.333M196.667 180.333L197.333 180.667L196.667 180.333z"/>
<path style="fill:#959d8e; stroke:none;" d="M198.667 180.333L199.333 180.667L198.667 180.333M354 180L354 181L357 181L354 180z"/>
<path style="fill:#beb9b2; stroke:none;" d="M357 180L358 181L357 180z"/>
<path style="fill:#959d8e; stroke:none;" d="M379.667 180.333L380.333 180.667L379.667 180.333M178.667 181.333L179.333 181.667L178.667 181.333z"/>
<path style="fill:#beb9b2; stroke:none;" d="M180 181L181 182L180 181M201.667 181.333L202.333 181.667L201.667 181.333z"/>
<path style="fill:#959d8e; stroke:none;" d="M203.667 181.333L204.333 181.667L203.667 181.333z"/>
<path style="fill:#beb9b2; stroke:none;" d="M280.333 181.667L280.667 182.333L280.333 181.667z"/>
<path style="fill:#959d8e; stroke:none;" d="M352 181L353 182L352 181z"/>
<path style="fill:#beb9b2; stroke:none;" d="M353 181L354 182L353 181z"/>
<path style="fill:#959d8e; stroke:none;" d="M381 181L381 182L385 183L385 182L381 181M175 182L176 183L175 182z"/>
<path style="fill:#beb9b2; stroke:none;" d="M176.667 182.333L177.333 182.667L176.667 182.333M206 182L207 183L206 182z"/>
<path style="fill:#959d8e; stroke:none;" d="M207 182L208 183L207 182M276.333 182.667L276.667 183.333L276.333 182.667M349.667 182.333L350.333 182.667L349.667 182.333z"/>
<path style="fill:#beb9b2; stroke:none;" d="M351 182L352 183L351 182z"/>
<path style="fill:#959d8e; stroke:none;" d="M173 183L174 184L173 183z"/>
<path style="fill:#beb9b2; stroke:none;" d="M174 183L175 184L174 183M208 183L209 184L208 183z"/>
<path style="fill:#959d8e; stroke:none;" d="M209 183L210 184L209 183M280 183L281 184L280 183M347.667 183.333L348.333 183.667L347.667 183.333M385 183L386 184L385 183M171 184L172 185L171 184z"/>
<path style="fill:#beb9b2; stroke:none;" d="M172 184L173 185L172 184M210 184L211 185L210 184z"/>
<path style="fill:#959d8e; stroke:none;" d="M211 184L212 185L211 184M341 187L347 185L341 187M386 184L386 185L390 187L386 184M170 185L171 186L170 185M212 185L213 186L212 185z"/>
<path style="fill:#beb9b2; stroke:none;" d="M277 185L277 189L278 189L277 185M345 185L346 186L345 185M387 185L388 186L387 185M489 185L489 189L490 189L489 185M169 186L170 187L169 186M213 186L217 190L213 186z"/>
<path style="fill:#959d8e; stroke:none;" d="M214 186L215 187L214 186z"/>
<path style="fill:#beb9b2; stroke:none;" d="M279 186L280 187L279 186M344 186L345 187L344 186M388 186L389 187L388 186z"/>
<path style="fill:#959d8e; stroke:none;" d="M167 187L168 188L167 187z"/>
<path style="fill:#beb9b2; stroke:none;" d="M168 187L169 188L168 187z"/>
<path style="fill:#959d8e; stroke:none;" d="M215 187L216 188L215 187M279.333 187.667L279.667 188.333L279.333 187.667M340 187L339 189L340 187M390 187L391 188L390 187M166 188L167 189L166 188M216 188L217 189L216 188M341 188L342 189L341 188M391 188L402 206C403.423 199.222 397.466 189.854 391 188M165 189L166 190L165 189M277.333 189.667L277.667 190.333L277.333 189.667M338 189L335 193L338 189z"/>
<path style="fill:#beb9b2; stroke:none;" d="M340 189L341 190L340 189z"/>
<path style="fill:#959d8e; stroke:none;" d="M164 190L165 191L164 190M217 190L218 191L217 190z"/>
<path style="fill:#beb9b2; stroke:none;" d="M339 190L340 191L339 190M392 190L393 191L392 190z"/>
<path style="fill:#959d8e; stroke:none;" d="M163 191L164 192L163 191M218 191L219 192L218 191z"/>
<path style="fill:#beb9b2; stroke:none;" d="M278.333 191.667L278.667 192.333L278.333 191.667M338 191L339 192L338 191M393 191L394 192L393 191M490 191L490 195L491 195L490 191z"/>
<path style="fill:#959d8e; stroke:none;" d="M162 192L163 193L162 192M219 192L220 193L219 192z"/>
<path style="fill:#beb9b2; stroke:none;" d="M337 192L338 193L337 192M394 192L396 194L396 192L394 192z"/>
<path style="fill:#959d8e; stroke:none;" d="M161 193L162 194L161 193M220 193L221 194L220 193M278.333 193.667L278.667 194.333L278.333 193.667z"/>
<path style="fill:#beb9b2; stroke:none;" d="M335 193L336 194L335 193z"/>
<path style="fill:#959d8e; stroke:none;" d="M160 194L161 195L160 194M221 194L222 195L221 194M334 194L335 195L334 194z"/>
<path style="fill:#beb9b2; stroke:none;" d="M396 194L397 195L396 194M160 195L161 196L160 195z"/>
<path style="fill:#959d8e; stroke:none;" d="M222 195L223 196L222 195M333 195L334 196L333 195z"/>
<path style="fill:#beb9b2; stroke:none;" d="M397.333 195.667L397.667 196.333L397.333 195.667z"/>
<path style="fill:#959d8e; stroke:none;" d="M159 196L160 197L159 196M223 196L224 197L223 196z"/>
<path style="fill:#beb9b2; stroke:none;" d="M333 196L334 197L333 196z"/>
<path style="fill:#959d8e; stroke:none;" d="M158 197L159 198L158 197z"/>
<path style="fill:#beb9b2; stroke:none;" d="M223 197L224 198L223 197z"/>
<path style="fill:#959d8e; stroke:none;" d="M332 197L333 198L332 197z"/>
<path style="fill:#beb9b2; stroke:none;" d="M398.333 197.667L398.667 198.333L398.333 197.667M158 198L159 199L158 198z"/>
<path style="fill:#959d8e; stroke:none;" d="M224 198L225 199L224 198M331 198L332 199L331 198M157 199L158 200L157 199M225 199L226 200L225 199z"/>
<path style="fill:#beb9b2; stroke:none;" d="M331 199L332 200L331 199M399.333 199.667L399.667 200.333L399.333 199.667M491 199L491 206L492 206L491 199M157 200L158 201L157 200M225 200L226 201L225 200z"/>
<path style="fill:#959d8e; stroke:none;" d="M330 200L331 201L330 200M156 201L157 202L156 201M226.333 201.667L226.667 202.333L226.333 201.667z"/>
<path style="fill:#beb9b2; stroke:none;" d="M330 201L331 202L330 201M400.333 201.667L400.667 202.333L400.333 201.667M156 202L157 203L156 202z"/>
<path style="fill:#959d8e; stroke:none;" d="M329 202L330 203L329 202M155 203L156 204L155 203z"/>
<path style="fill:#beb9b2; stroke:none;" d="M226 203L227 204L226 203M329 203L330 204L329 203z"/>
<path style="fill:#959d8e; stroke:none;" d="M57 204L57 250L58 250C59.2919 237.896 62.8125 215.011 57 204z"/>
<path style="fill:#beb9b2; stroke:none;" d="M155 204L156 205L155 204z"/>
<path style="fill:#959d8e; stroke:none;" d="M227 204L228 205L227 204M328 204L329 205L328 204z"/>
<path style="fill:#beb9b2; stroke:none;" d="M401.333 204.667L401.667 205.333L401.333 204.667z"/>
<path style="fill:#959d8e; stroke:none;" d="M154 205L155 206L154 205z"/>
<path style="fill:#beb9b2; stroke:none;" d="M227 205L228 206L227 205M328 205L329 206L328 205M154 206L155 207L154 206z"/>
<path style="fill:#959d8e; stroke:none;" d="M228.333 206.667L228.667 207.333L228.333 206.667M327.333 206.667L327.667 207.333L327.333 206.667z"/>
<path style="fill:#beb9b2; stroke:none;" d="M402.333 206.667L402.667 207.333L402.333 206.667z"/>
<path style="fill:#959d8e; stroke:none;" d="M153 207L154 208L153 207M403.333 207.667L403.667 208.333L403.333 207.667z"/>
<path style="fill:#beb9b2; stroke:none;" d="M153 208L154 209L153 208M228 208L229 209L228 208M327 208L328 209L327 208z"/>
<path style="fill:#959d8e; stroke:none;" d="M152.333 209.667L152.667 210.333L152.333 209.667M229.333 209.667L229.667 210.333L229.333 209.667M326.333 209.667L326.667 210.333L326.333 209.667z"/>
<path style="fill:#beb9b2; stroke:none;" d="M403.333 209.667L403.667 210.333L403.333 209.667z"/>
<path style="fill:#959d8e; stroke:none;" d="M404.333 210.667L404.667 211.333L404.333 210.667z"/>
<path style="fill:#beb9b2; stroke:none;" d="M492 210L492 219L493 219L492 210z"/>
<path style="fill:#522b28; stroke:none;" d="M58 211L58 214L59 214L58 211z"/>
<path style="fill:#beb9b2; stroke:none;" d="M152 211L153 212L152 211M229 211L230 212L229 211M326 211L327 212L326 211z"/>
<path style="fill:#959d8e; stroke:none;" d="M151.333 212.667L151.667 213.333L151.333 212.667M230.333 212.667L230.667 213.333L230.333 212.667M325 212L326 213L325 212z"/>
<path style="fill:#beb9b2; stroke:none;" d="M404.333 212.667L404.667 213.333L404.333 212.667M325.333 213.667L325.667 214.333L325.333 213.667z"/>
<path style="fill:#522b28; stroke:none;" d="M490 213L490 226L491 226L490 213z"/>
<path style="fill:#beb9b2; stroke:none;" d="M151.333 214.667L151.667 215.333L151.333 214.667M230.333 214.667L230.667 215.333L230.333 214.667z"/>
<path style="fill:#959d8e; stroke:none;" d="M405.333 214.667L405.667 215.333L405.333 214.667M324.333 215.667L324.667 216.333L324.333 215.667M150.333 216.667L150.667 217.333L150.333 216.667M231.333 216.667L231.667 217.333L231.333 216.667z"/>
<path style="fill:#beb9b2; stroke:none;" d="M405.333 216.667L405.667 217.333L405.333 216.667M324 217L325 218L324 217M150.333 218.667L150.667 219.333L150.333 218.667M231.333 218.667L231.667 219.333L231.333 218.667z"/>
<path style="fill:#959d8e; stroke:none;" d="M406 218L406 221L407 221L406 218M323.333 219.667L323.667 220.333L323.333 219.667M149.333 220.667L149.667 221.333L149.333 220.667M232 220L232 223L233 223L232 220z"/>
<path style="fill:#beb9b2; stroke:none;" d="M323.333 221.667L323.667 222.333L323.333 221.667M406 221L406 225L407 225L406 221M149.333 222.667L149.667 223.333L149.333 222.667M232.333 223.667L232.667 224.333L232.333 223.667z"/>
<path style="fill:#959d8e; stroke:none;" d="M322 223L322 226L323 226L322 223M148 224L148 227L149 227L148 224M233 224L233 229L234 229L233 224M407 224L407 229L408 229L407 224z"/>
<path style="fill:#beb9b2; stroke:none;" d="M493 224L494 288L495 288L494.17 240L493 224M322.333 226.667L322.667 227.333L322.333 226.667M148 227L148 230L149 230L148 227z"/>
<path style="fill:#959d8e; stroke:none;" d="M321 228L321 231L322 231L321 228z"/>
<path style="fill:#522b28; stroke:none;" d="M491 228L491 253L492 253L491 228z"/>
<path style="fill:#beb9b2; stroke:none;" d="M233 229L233 232L234 232L233 229M407 229L407 240L408 240L407 229z"/>
<path style="fill:#959d8e; stroke:none;" d="M147 231L147 235L148 235L147 231z"/>
<path style="fill:#beb9b2; stroke:none;" d="M321 231L321 234L322 234L321 231z"/>
<path style="fill:#959d8e; stroke:none;" d="M234 232L234 237L235 237L234 232M320 234L320 238L321 238L320 234z"/>
<path style="fill:#beb9b2; stroke:none;" d="M147 235L147 240L148 240L147 235z"/>
<path style="fill:#959d8e; stroke:none;" d="M408 236L408 362C408 382.93 410.132 405.24 407.715 426C405.879 441.76 406.975 458.132 407 474C407.011 480.78 407.34 488.537 414 492L413 434L414 313L413 268L411 251L411 246L410 246L410 257L409 257L408 236z"/>
<path style="fill:#beb9b2; stroke:none;" d="M234 237L234 243L235 243L234 237M320 238L320 241L321 241L320 238z"/>
<path style="fill:#959d8e; stroke:none;" d="M146 242L146 499L147 499L147 318L147 266L146 242M235 243L235 323L236 323L236 268L235 243M319 243L319 485L320 485L320 314L320 265L319 243z"/>
<path style="fill:#beb9b2; stroke:none;" d="M57.3333 250.667L57.6667 251.333L57.3333 250.667z"/>
<path style="fill:#959d8e; stroke:none;" d="M57 252L57 362L58 362L58 285L57 252z"/>
<path style="fill:#522b28; stroke:none;" d="M411.333 253.667L411.667 254.333L411.333 253.667M491 254L491 262L492 262L491 254M409 258L410 259L409 258M491 263L491 308L492 308C492 295.258 495.91 274.701 491 263z"/>
<path style="fill:#beb9b2; stroke:none;" d="M494 290L495 291L494 290M494 292L495 293L494 292M407 295L408 296L407 295M493 296L494 297L493 296M407 298L407 416L408 416L408 334L407 298M493 299L493 457L494 457L495 347L494.019 318L493 299z"/>
<path style="fill:#522b28; stroke:none;" d="M491 309L492 310L491 309M414.333 310.667L414.667 311.333L414.333 310.667M414.333 313.667L414.667 314.333L414.333 313.667M414 316L414 342L415 342L414 316z"/>
<path style="fill:#beb9b2; stroke:none;" d="M235 323L236 324L235 323z"/>
<path style="fill:#959d8e; stroke:none;" d="M235 324L236 325L235 324z"/>
<path style="fill:#beb9b2; stroke:none;" d="M235 325L235 329L236 329L235 325z"/>
<path style="fill:#959d8e; stroke:none;" d="M235 329L236 330L235 329z"/>
<path style="fill:#522b28; stroke:none;" d="M491 329L492 330L491 329z"/>
<path style="fill:#beb9b2; stroke:none;" d="M235.333 330.667L235.667 331.333L235.333 330.667z"/>
<path style="fill:#522b28; stroke:none;" d="M491.333 331.667L491.667 332.333L491.333 331.667z"/>
<path style="fill:#959d8e; stroke:none;" d="M235 332L235 346L236 346L235 332z"/>
<path style="fill:#522b28; stroke:none;" d="M414 344L415 345L414 344z"/>
<path style="fill:#beb9b2; stroke:none;" d="M235 346L236 347L235 346z"/>
<path style="fill:#959d8e; stroke:none;" d="M235 347L235 405L236 405L236 366L235 347z"/>
<path style="fill:#beb9b2; stroke:none;" d="M57 362L58 363L57 362z"/>
<path style="fill:#959d8e; stroke:none;" d="M57 363L57 372L58 372L57 363z"/>
<path style="fill:#beb9b2; stroke:none;" d="M57 372L58 373L57 372z"/>
<path style="fill:#959d8e; stroke:none;" d="M57.3333 373.667L57.6667 374.333L57.3333 373.667z"/>
<path style="fill:#beb9b2; stroke:none;" d="M57 375L57 433L58 433L58 394L57 375z"/>
<path style="fill:#522b28; stroke:none;" d="M413 379L414 380L413 379M492 382L492 395L493 395L492 382M413 389L414 390L413 389M413 391L413 439L414 439C414 425.474 418.209 403.414 413 391z"/>
<path style="fill:#959d8e; stroke:none;" d="M492 395L492 443L493 468L494 468L493 419L492 395M235 408L235 414L236 414L235 408M235 416L235 427L236 427L235 416z"/>
<path style="fill:#beb9b2; stroke:none;" d="M407 417L407 428L408 428L407 417z"/>
<path style="fill:#959d8e; stroke:none;" d="M235 428L235 431L236 431L235 428M235 432L235 451L236 451L235 432M57 433L58 434L57 433z"/>
<path style="fill:#beb9b2; stroke:none;" d="M57 434L57 437L58 437L57 434z"/>
<path style="fill:#959d8e; stroke:none;" d="M57 437L58 438L57 437z"/>
<path style="fill:#beb9b2; stroke:none;" d="M57.3333 438.667L57.6667 439.333L57.3333 438.667z"/>
<path style="fill:#959d8e; stroke:none;" d="M57 440L57 444L58 444L57 440z"/>
<path style="fill:#beb9b2; stroke:none;" d="M57 444L57 447L58 447L57 444z"/>
<path style="fill:#959d8e; stroke:none;" d="M57 447L58 448L57 447z"/>
<path style="fill:#beb9b2; stroke:none;" d="M57 448L57 454L58 454L57 448z"/>
<path style="fill:#959d8e; stroke:none;" d="M235.333 452.667L235.667 453.333L235.333 452.667M57 454L57 487L58 487L57 454M235 456L235 475L236 475L235 456z"/>
<path style="fill:#522b28; stroke:none;" d="M492 460L493 461L492 460M492.333 467.667L492.667 468.333L492.333 467.667z"/>
<path style="fill:#beb9b2; stroke:none;" d="M493.333 468.667L493.667 469.333L493.333 468.667z"/>
<path style="fill:#959d8e; stroke:none;" d="M492 469L493 476L494 476L492 469z"/>
<path style="fill:#beb9b2; stroke:none;" d="M493.333 471.667L493.667 472.333L493.333 471.667M493 474L494 475L493 474z"/>
<path style="fill:#522b28; stroke:none;" d="M492 475C491.996 480.735 492.21 487.578 486.892 491.258C482.857 494.05 477.552 492.581 473 492.745C460.679 493.191 448.332 493 436 493L436 494L470 494C474.835 494 481.406 495.136 485.985 493.397C492.796 490.808 494.537 481.046 492 475z"/>
<path style="fill:#beb9b2; stroke:none;" d="M320 476L320 479L321 479L320 476M493 476L493 486L494 486L493 476z"/>
<path style="fill:#959d8e; stroke:none;" d="M235 478L236 479L235 478M235 480L235 487L236 487L235 480z"/>
<path style="fill:#beb9b2; stroke:none;" d="M407 482L407 485L408 485L407 482z"/>
<path style="fill:#522b28; stroke:none;" d="M413 484C413.097 488.54 413.241 492.458 418 494L423 491L423 490C417.832 489.832 415.758 488.245 413 484z"/>
<path style="fill:#beb9b2; stroke:none;" d="M319 485L319 489L320 489L319 485M408 486L409 487L408 486z"/>
<path style="fill:#959d8e; stroke:none;" d="M492 486L488 493L492 486z"/>
<path style="fill:#beb9b2; stroke:none;" d="M57 487L57 513L58 513L57 487M235 487L236 488L235 487z"/>
<path style="fill:#959d8e; stroke:none;" d="M236 488L237 489L236 488M318 488L316 492L318 488z"/>
<path style="fill:#beb9b2; stroke:none;" d="M409 488L410 489L409 488M492 488L493 489L492 488M237 490L238 491L237 490z"/>
<path style="fill:#522b28; stroke:none;" d="M297 490L298 491L297 490z"/>
<path style="fill:#beb9b2; stroke:none;" d="M318 490L319 491L318 490z"/>
<path style="fill:#522b28; stroke:none;" d="M424 490L424 491L427 491L424 490z"/>
<path style="fill:#beb9b2; stroke:none;" d="M491 490L492 491L491 490z"/>
<path style="fill:#959d8e; stroke:none;" d="M238 491L239 492L238 491z"/>
<path style="fill:#beb9b2; stroke:none;" d="M317 491L318 492L317 491M490 491L491 492L490 491M239 492L240 493L239 492M315.667 492.333L316.333 492.667L315.667 492.333M413 492L414 493L413 492M489 492L490 493L489 492M240 493L241 494L240 493z"/>
<path style="fill:#959d8e; stroke:none;" d="M241.667 493.333L242.333 493.667L241.667 493.333z"/>
<path style="fill:#522b28; stroke:none;" d="M295 493L295 494L302 494L295 493M310.667 493.333L311.333 493.667L310.667 493.333z"/>
<path style="fill:#959d8e; stroke:none;" d="M312 493L313 494L312 493z"/>
<path style="fill:#beb9b2; stroke:none;" d="M313.667 493.333L314.333 493.667L313.667 493.333M414 493L415 494L414 493z"/>
<path style="fill:#522b28; stroke:none;" d="M433.667 493.333L434.333 493.667L433.667 493.333z"/>
<path style="fill:#959d8e; stroke:none;" d="M487 493L488 494L487 493z"/>
<path style="fill:#beb9b2; stroke:none;" d="M243.667 494.333L244.333 494.667L243.667 494.333z"/>
<path style="fill:#959d8e; stroke:none;" d="M245 494L245 495L257 495L245 494M258 494L259 495L258 494M260 494L260 495L310 495C297.11 489.591 274.049 494 260 494z"/>
<path style="fill:#beb9b2; stroke:none;" d="M310 494L311 495L310 494z"/>
<path style="fill:#959d8e; stroke:none;" d="M416 494L416 495L484 495L463 494L416 494z"/>
<path style="fill:#beb9b2; stroke:none;" d="M484.667 494.333L485.333 494.667L484.667 494.333z"/>
<path style="fill:#959d8e; stroke:none;" d="M146.333 500.667L146.667 501.333L146.333 500.667M146 507L147 508L146 507M146 512L147 513L146 512z"/>
<path style="fill:#beb9b2; stroke:none;" d="M58 513L58 514L147 514L120 513L58 513z"/>
</svg>
